<?xml version="1.0" encoding="UTF-8"?>
<svg version="1.1" xmlns="http://www.w3.org/2000/svg" width="360" height="360">
<path d="M0 0 C118.8 0 237.6 0 360 0 C360 118.8 360 237.6 360 360 C241.2 360 122.4 360 0 360 C0 241.2 0 122.4 0 0 Z " fill="#C7C7C7" transform="translate(0,0)"/>
<path d="M0 0 C3.01177693 1.77713546 5.4108136 3.8216272 7 7 C7.53209766 12.33842242 7.64057432 16.69597371 5.25 21.5625 C2.54974346 24.48777792 0.58820171 25.77461164 -3.3671875 26.3359375 C-9.09465733 26.42515043 -12.56447399 26.00279176 -17 22 C-19.88602816 18.53676621 -20.53457148 15.51239915 -20.35546875 10.9921875 C-19.59940399 6.75490147 -17.08061217 3.94962887 -13.9375 1.1875 C-9.33994595 -1.63035571 -5.06745988 -1.28628879 0 0 Z " fill="#B4882E" transform="translate(171,136)"/>
<path d="M0 0 C5.71406054 1.14281211 6.32638919 2.02012297 9.75 6.4375 C10.52859375 7.42621094 11.3071875 8.41492188 12.109375 9.43359375 C14 12 14 12 15 14 C15.33 9.38 15.66 4.76 16 0 C17.65 0 19.3 0 21 0 C21 8.58 21 17.16 21 26 C15.375 24.875 15.375 24.875 13.32421875 21.83984375 C12.88916016 21.21142578 12.45410156 20.58300781 12.00585938 19.93554688 C11.57080078 19.27619141 11.13574219 18.61683594 10.6875 17.9375 C10.0059082 16.94266602 10.0059082 16.94266602 9.31054688 15.92773438 C8.19397033 14.29400659 7.09520819 12.64812883 6 11 C5.67 15.95 5.34 20.9 5 26 C3.35 26 1.7 26 0 26 C0 17.42 0 8.84 0 0 Z " fill="#B1862C" transform="translate(184,136)"/>
<path d="M0 0 C13.33519553 -0.3704221 13.33519553 -0.3704221 16.390625 1.33203125 C18.78366477 3.81219626 19 5.59132837 19 9 C17.0625 11.875 17.0625 11.875 15 14 C16.19899698 17.0831351 17.47700477 20.06279492 19 23 C16.75 22.875 16.75 22.875 14 22 C13.360625 21.01 12.72125 20.02 12.0625 19 C10.26810509 15.6954927 10.26810509 15.6954927 6.75 15.125 C5.38875 15.063125 5.38875 15.063125 4 15 C4 17.64 4 20.28 4 23 C2.68 23 1.36 23 0 23 C0 15.41 0 7.82 0 0 Z " fill="#161616" transform="translate(260,179)"/>
<path d="M0 0 C2.5 1.5 2.5 1.5 4 3 C3.67 3.99 3.34 4.98 3 6 C-0.69418201 7.231394 -3.2056261 6.64432764 -7 6 C-7.33 6.99 -7.66 7.98 -8 9 C-7.39671875 9.17015625 -6.7934375 9.3403125 -6.171875 9.515625 C2.45856354 12.13259669 2.45856354 12.13259669 5 16 C5.75856436 19.96139166 5.3337936 21.48818314 3.125 24.875 C-0.70100192 27.4766813 -3.07982579 27.52443974 -7.59765625 27.46875 C-10.40459963 26.92105373 -11.8613469 25.8571214 -14 24 C-13.34 22.68 -12.68 21.36 -12 20 C-11.01 20.33 -10.02 20.66 -9 21 C-6.66700175 21.03954234 -4.33291811 21.04401732 -2 21 C-1.67 19.68 -1.34 18.36 -1 17 C-1.86625 16.9175 -2.7325 16.835 -3.625 16.75 C-7.64757792 15.8560938 -9.90832214 14.73218043 -13 12 C-14.25 8.5625 -14.25 8.5625 -14 5 C-9.74300544 -0.13022421 -6.50985277 -0.839981 0 0 Z " fill="#B38A31" transform="translate(142,135)"/>
<path d="M0 0 C5 1 5 1 6.58203125 2.99609375 C6.98808594 3.80175781 7.39414063 4.60742188 7.8125 5.4375 C8.23144531 6.24058594 8.65039062 7.04367188 9.08203125 7.87109375 C10 10 10 10 10 12 C10.66 12 11.32 12 12 12 C12.2475 11.319375 12.495 10.63875 12.75 9.9375 C14.24197908 6.43134917 16.06835511 3.28379632 18 0 C19.65 0 21.3 0 23 0 C23 7.59 23 15.18 23 23 C21.68 23 20.36 23 19 23 C18.67 18.05 18.34 13.1 18 8 C15.03 12.95 15.03 12.95 12 18 C8.21681784 14.21681784 6.46326463 11.57463432 4 7 C3.67 12.28 3.34 17.56 3 23 C2.01 23 1.02 23 0 23 C0 15.41 0 7.82 0 0 Z " fill="#0B0B0B" transform="translate(199,179)"/>
<path d="M0 0 C1.32 0 2.64 0 4 0 C7.3 7.59 10.6 15.18 14 23 C12.68 23 11.36 23 10 23 C9.34 21.02 8.68 19.04 8 17 C4.04 17.33 0.08 17.66 -4 18 C-4.99 20.475 -4.99 20.475 -6 23 C-7.32 22.67 -8.64 22.34 -10 22 C-8.5247255 18.51917004 -7.04413293 15.04062769 -5.5625 11.5625 C-5.14162109 10.56927734 -4.72074219 9.57605469 -4.28710938 8.55273438 C-3.88427734 7.60849609 -3.48144531 6.66425781 -3.06640625 5.69140625 C-2.69459229 4.81685791 -2.32277832 3.94230957 -1.93969727 3.04125977 C-1 1 -1 1 0 0 Z " fill="#070708" transform="translate(101,179)"/>
<path d="M0 0 C1.32 0 2.64 0 4 0 C7.3 7.59 10.6 15.18 14 23 C12.68 23 11.36 23 10 23 C9.34 21.02 8.68 19.04 8 17 C4.04 17 0.08 17 -4 17 C-4.66 18.98 -5.32 20.96 -6 23 C-7.32 22.67 -8.64 22.34 -10 22 C-8.5247255 18.51917004 -7.04413293 15.04062769 -5.5625 11.5625 C-5.14162109 10.56927734 -4.72074219 9.57605469 -4.28710938 8.55273438 C-3.88427734 7.60849609 -3.48144531 6.66425781 -3.06640625 5.69140625 C-2.69459229 4.81685791 -2.32277832 3.94230957 -1.93969727 3.04125977 C-1 1 -1 1 0 0 Z " fill="#070707" transform="translate(239,179)"/>
<path d="M0 0 C1.41623216 -0.05447047 2.83308191 -0.09300508 4.25 -0.125 C5.03890625 -0.14820313 5.8278125 -0.17140625 6.640625 -0.1953125 C9.20731941 0.0171622 10.7916067 0.71345895 13 2 C13 2.66 13 3.32 13 4 C13.66 4 14.32 4 15 4 C15.33 5.32 15.66 6.64 16 8 C16.99 6.68 17.98 5.36 19 4 C19.66 4.66 20.32 5.32 21 6 C20.505 6.66 20.01 7.32 19.5 8 C17.23766661 12.52466677 17.50465126 16.52325628 18.5 21.5 C18.665 21.995 18.83 22.49 19 23 C18.34 23 17.68 23 17 23 C17 23.66 17 24.32 17 25 C15.35546875 26.1484375 15.35546875 26.1484375 13.1875 27.375 C10.01502278 29.2605817 8.06766459 30.89850311 6 34 C5.34 34 4.68 34 4 34 C4.33 32.68 4.66 31.36 5 30 C5.66 30 6.32 30 7 30 C7.33 29.01 7.66 28.02 8 27 C8.680625 26.401875 9.36125 25.80375 10.0625 25.1875 C12.27298396 23.09616194 12.27298396 23.09616194 12.4375 19.9375 C11.94006909 16.59760678 11.52512348 16.07819897 9 14 C6.73972655 12.7951851 6.73972655 12.7951851 4.3125 11.8125 C3.50425781 11.46832031 2.69601563 11.12414062 1.86328125 10.76953125 C1.24839844 10.51558594 0.63351563 10.26164063 0 10 C0.33 8.68 0.66 7.36 1 6 C3.01822917 6.29296875 5.03645833 6.5859375 7.0546875 6.87890625 C9.08140667 7.1684297 9.08140667 7.1684297 11 6 C11 5.34 11 4.68 11 4 C8.09907498 2.06604999 7.10325263 1.69868059 3.8125 1.375 C1.9253125 1.189375 1.9253125 1.189375 0 1 C0 0.67 0 0.34 0 0 Z " fill="#D3CEC6" transform="translate(134,134)"/>
<path d="M0 0 C2.99097304 2.54232708 3.84202557 4.1574697 4.5625 8 C3.79301948 12.10389613 2.32878632 13.53959272 -1 16 C-4.78454468 16.70960213 -6.46714413 16.27801176 -9.875 14.5 C-12.4599138 11.45892495 -12.69344392 9.79963955 -12.41015625 5.90625 C-12 4 -12 4 -10.5 1.5 C-6.98105682 -0.61136591 -3.99893269 -0.94237143 0 0 Z " fill="#D2CEC6" transform="translate(169,141)"/>
<path d="M0 0 C1.32 0 2.64 0 4 0 C4.33 3.3 4.66 6.6 5 10 C5.48210937 9.44570312 5.96421875 8.89140625 6.4609375 8.3203125 C7.40839844 7.23363281 7.40839844 7.23363281 8.375 6.125 C9.00148437 5.40570313 9.62796875 4.68640625 10.2734375 3.9453125 C11.47426834 2.5923402 12.7208345 1.2791655 14 0 C15.32 0.33 16.64 0.66 18 1 C15.69 3.64 13.38 6.28 11 9 C12.3255581 12.62276315 13.94346955 15.63505348 16.125 18.8125 C16.66382813 19.60269531 17.20265625 20.39289063 17.7578125 21.20703125 C18.16773438 21.79871094 18.57765625 22.39039063 19 23 C16.70703125 23.28125 16.70703125 23.28125 14 23 C12.19921875 21.03125 12.19921875 21.03125 10.6875 18.5 C10.17574219 17.6646875 9.66398438 16.829375 9.13671875 15.96875 C8.76160156 15.3190625 8.38648438 14.669375 8 14 C7.01 14.33 6.02 14.66 5 15 C4.67 17.64 4.34 20.28 4 23 C2.68 23 1.36 23 0 23 C0 15.41 0 7.82 0 0 Z " fill="#101011" transform="translate(145,179)"/>
<path d="M0 0 C0.99 0 1.98 0 3 0 C3.04898438 1.20398438 3.09796875 2.40796875 3.1484375 3.6484375 C3.22346343 5.22398198 3.29901133 6.79950166 3.375 8.375 C3.4059375 9.1690625 3.436875 9.963125 3.46875 10.78125 C3.51816421 15.36667375 3.51816421 15.36667375 6 19 C8.64 19 11.28 19 14 19 C14.33 12.73 14.66 6.46 15 0 C16.32 0 17.64 0 19 0 C19.1083667 2.7302389 19.18746694 5.45614543 19.25 8.1875 C19.30027344 9.34088867 19.30027344 9.34088867 19.3515625 10.51757812 C19.42066039 14.54253008 19.31755003 16.49808724 17.109375 19.98828125 C13.87271274 23.07509804 11.59364296 23.19814617 7.16796875 23.5234375 C3.54640059 22.64904086 2.1882253 20.96432597 0 18 C-0.5914804 14.86730406 -0.47530957 11.86103419 -0.3125 8.6875 C-0.28994141 7.85154297 -0.26738281 7.01558594 -0.24414062 6.15429688 C-0.1855061 4.10208851 -0.09583215 2.05080798 0 0 Z " fill="#030303" transform="translate(171,179)"/>
<path d="M0 0 C1.98 0 3.96 0 6 0 C6 8.58 6 17.16 6 26 C4.02 26 2.04 26 0 26 C0 17.42 0 8.84 0 0 Z " fill="#B28C3C" transform="translate(211,136)"/>
<path d="M0 0 C13.39615385 -0.49615385 13.39615385 -0.49615385 16.453125 2.015625 C16.96359375 2.67046875 17.4740625 3.3253125 18 4 C16.0625 4.5625 16.0625 4.5625 14 5 C13.67 4.67 13.34 4.34 13 4 C10.01110641 3.54234333 7.01030352 3.29679049 4 3 C4 5.97 4 8.94 4 12 C6.64 12 9.28 12 12 12 C10 14 10 14 6.875 14.125 C5.92625 14.08375 4.9775 14.0425 4 14 C4 16.97 4 19.94 4 23 C2.68 23 1.36 23 0 23 C0 15.41 0 7.82 0 0 Z " fill="#050505" transform="translate(260,179)"/>
<path d="M0 0 C4.55689278 0.48249453 4.55689278 0.48249453 6.58203125 2.84765625 C7.72135417 4.8984375 8.86067708 6.94921875 10 9 C12.97 4.545 12.97 4.545 16 0 C17.32 0.33 18.64 0.66 20 1 C19.50628906 1.66644531 19.01257813 2.33289063 18.50390625 3.01953125 C13.84082213 9.7279923 11.88913552 14.81186645 12 23 C10.68 23 9.36 23 8 23 C8.00902344 22.34515625 8.01804687 21.6903125 8.02734375 21.015625 C7.75254219 12.55651597 4.64584316 6.95056952 0 0 Z " fill="#0A0A0A" transform="translate(119,179)"/>
<path d="M0 0 C4.24185991 4.24185991 7.0328687 7.91089443 10.15625 12.890625 C12.36550665 15.41816439 13.71627904 15.70761389 17 16 C15.35 17.65 13.7 19.3 12 21 C10 18 10 18 10 16 C9.34 15.34 8.68 14.68 8 14 C5.9519572 14.0950739 5.9519572 14.0950739 4 15 C3.01 16.485 3.01 16.485 2 18 C-0.83967231 18 -3.23735711 17.59732819 -6 17 C-6 16.67 -6 16.34 -6 16 C-4.02 16 -2.04 16 0 16 C0 10.72 0 5.44 0 0 Z " fill="#D0CDC6" transform="translate(189,146)"/>
<path d="M0 0 C2.475 0.495 2.475 0.495 5 1 C5.38063221 3.3260857 5.71269945 5.66055264 6 8 C5.67 8.33 5.34 8.66 5 9 C4.76298761 11.85877909 4.57780818 14.69883297 4.4375 17.5625 C4.39431641 18.36880859 4.35113281 19.17511719 4.30664062 20.00585938 C4.20024738 22.00368805 4.09959112 24.0018207 4 26 C2.68 26 1.36 26 0 26 C0 17.42 0 8.84 0 0 Z " fill="#B08327" transform="translate(184,136)"/>
<path d="M0 0 C5 1 5 1 6.58203125 2.890625 C6.98808594 3.66921875 7.39414063 4.4478125 7.8125 5.25 C8.44091797 6.40242187 8.44091797 6.40242187 9.08203125 7.578125 C10.08361766 10.22060829 10.17386622 12.19827004 10 15 C7.16763009 12.35645475 5.78155733 10.56311466 4 7 C3.67 12.28 3.34 17.56 3 23 C2.01 23 1.02 23 0 23 C0 15.41 0 7.82 0 0 Z " fill="#050505" transform="translate(199,179)"/>
<path d="M0 0 C1.32 0 2.64 0 4 0 C4.99 2.31 5.98 4.62 7 7 C6.01 7 5.02 7 4 7 C4.66 9.31 5.32 11.62 6 14 C3.03 14 0.06 14 -3 14 C-3.66 12.68 -4.32 11.36 -5 10 C-4.1015625 7.421875 -4.1015625 7.421875 -2.625 4.75 C-2.14289063 3.85796875 -1.66078125 2.9659375 -1.1640625 2.046875 C-0.77992187 1.37140625 -0.39578125 0.6959375 0 0 Z " fill="#0C0C0C" transform="translate(101,179)"/>
<path d="M0 0 C0.33 0 0.66 0 1 0 C1 5.28 1 10.56 1 16 C-1.97 15.505 -1.97 15.505 -5 15 C-5.33 15.66 -5.66 16.32 -6 17 C-7.32 15.02 -8.64 13.04 -10 11 C-10.33 15.95 -10.66 20.9 -11 26 C-11.33 26 -11.66 26 -12 26 C-12.0270817 23.27076612 -12.04687847 20.54180363 -12.0625 17.8125 C-12.07506836 16.65911133 -12.07506836 16.65911133 -12.08789062 15.48242188 C-12.12749335 6.2549867 -12.12749335 6.2549867 -10 2 C-7.03 5.96 -4.06 9.92 -1 14 C-0.67 9.38 -0.34 4.76 0 0 Z " fill="#B28C3C" transform="translate(200,136)"/>
<path d="M0 0 C0.99 0 1.98 0 3 0 C4.32 2.31 5.64 4.62 7 7 C8.32 4.69 9.64 2.38 11 0 C11.99 0 12.98 0 14 0 C14 4.62 14 9.24 14 14 C13.34 14 12.68 14 12 14 C11.67 11.36 11.34 8.72 11 6 C9.68 7.65 8.36 9.3 7 11 C5.68 9.02 4.36 7.04 3 5 C2.67 7.97 2.34 10.94 2 14 C1.34 14 0.68 14 0 14 C0 9.38 0 4.76 0 0 Z " fill="#121212" transform="translate(181,211)"/>
<path d="M0 0 C3 1 3 1 4.38671875 3.43359375 C4.81597656 4.42488281 5.24523437 5.41617188 5.6875 6.4375 C6.34298828 7.92056641 6.34298828 7.92056641 7.01171875 9.43359375 C8 12 8 12 8 14 C7.34 14 6.68 14 6 14 C5.67 13.34 5.34 12.68 5 12 C3.10466658 11.53476937 3.10466658 11.53476937 0.9375 11.375 C-0.361875 11.25125 -1.66125 11.1275 -3 11 C-3.33 11.99 -3.66 12.98 -4 14 C-4.66 13.67 -5.32 13.34 -6 13 C-4.02 8.71 -2.04 4.42 0 0 Z " fill="#0A0A0A" transform="translate(146,211)"/>
<path d="M0 0 C1.45792884 -0.05399736 2.91642712 -0.09279177 4.375 -0.125 C5.18710937 -0.14820313 5.99921875 -0.17140625 6.8359375 -0.1953125 C9 0 9 0 11 2 C11.1875 4.5625 11.1875 4.5625 11 7 C10 8 10 8 7.71484375 8.09765625 C6.34005859 8.08025391 6.34005859 8.08025391 4.9375 8.0625 C4.01839844 8.05347656 3.09929687 8.04445312 2.15234375 8.03515625 C1.44207031 8.02355469 0.73179687 8.01195312 0 8 C0 5.36 0 2.72 0 0 Z " fill="#BEBEBE" transform="translate(264,182)"/>
<path d="M0 0 C0.99 0 1.98 0 3 0 C3.08706892 3.27066566 3.14041241 6.54103365 3.1875 9.8125 C3.22520508 11.2056543 3.22520508 11.2056543 3.26367188 12.62695312 C3.27817383 13.9659668 3.27817383 13.9659668 3.29296875 15.33203125 C3.31653442 16.56530151 3.31653442 16.56530151 3.34057617 17.82348633 C3 20 3 20 1.6809082 21.7800293 C-0.82111415 23.59594879 -3.0016071 23.19989286 -6 23 C-6 22.34 -6 21.68 -6 21 C-5.19175781 20.65324219 -4.38351563 20.30648437 -3.55078125 19.94921875 C-0.8720775 18.31583582 -0.8720775 18.31583582 -0.49365234 16.07275391 C-0.28201539 13.64382079 -0.20447007 11.25053327 -0.1875 8.8125 C-0.16236328 7.96751953 -0.13722656 7.12253906 -0.11132812 6.25195312 C-0.05247266 4.1684695 -0.02337005 2.08418373 0 0 Z " fill="#050505" transform="translate(81,179)"/>
<path d="M0 0 C0.66 0 1.32 0 2 0 C2 1.98 2 3.96 2 6 C4.64 6 7.28 6 10 6 C10 4.02 10 2.04 10 0 C10.66 0 11.32 0 12 0 C12 4.62 12 9.24 12 14 C11.34 14 10.68 14 10 14 C10 12.02 10 10.04 10 8 C7.69 8 5.38 8 3 8 C3 9.98 3 11.96 3 14 C2.01 14 1.02 14 0 14 C0 9.38 0 4.76 0 0 Z " fill="#2F2F2F" transform="translate(226,211)"/>
<path d="M0 0 C6.71135664 0.16405538 10.26796574 1.14966489 15 6 C16.32229189 8.64458379 16.09677194 10.67761301 16.0625 13.625 C16.05347656 14.62789062 16.04445312 15.63078125 16.03515625 16.6640625 C16.02355469 17.43492187 16.01195312 18.20578125 16 19 C15.67 19 15.34 19 15 19 C15 15.7 15 12.4 15 9 C14.34 9 13.68 9 13 9 C12.67 8.01 12.34 7.02 12 6 C11.34 5.67 10.68 5.34 10 5 C10.33 6.98 10.66 8.96 11 11 C10.46375 10.360625 9.9275 9.72125 9.375 9.0625 C6.55632807 6.61470596 4.66139268 6.33285388 1 6 C1.99 4.68 2.98 3.36 4 2 C2.68 1.34 1.36 0.68 0 0 Z " fill="#B68E3D" transform="translate(162,135)"/>
<path d="M0 0 C0.33 0 0.66 0 1 0 C1 8.58 1 17.16 1 26 C0.01 25.67 -0.98 25.34 -2 25 C-1.42415568 22.61435923 -0.77772405 20.33317216 0 18 C-0.66 18 -1.32 18 -2 18 C-3.74505575 12.76483274 -3.66668136 8.02833599 -1.5 3 C-1.005 2.01 -0.51 1.02 0 0 Z " fill="#D2D1CB" transform="translate(182,136)"/>
<path d="M0 0 C0.66 0 1.32 0 2 0 C2.33 2.31 2.66 4.62 3 7 C4.98 4.69 6.96 2.38 9 0 C9.66 0.33 10.32 0.66 11 1 C10.195625 1.8353125 10.195625 1.8353125 9.375 2.6875 C8.92125 3.450625 8.4675 4.21375 8 5 C8.61141128 7.57114212 8.61141128 7.57114212 10 10 C10.556875 11.1446875 10.556875 11.1446875 11.125 12.3125 C11.41375 12.869375 11.7025 13.42625 12 14 C11.01 14 10.02 14 9 14 C6.8125 11 6.8125 11 5 8 C2.8614515 10.1385485 2.57344937 11.13275314 2 14 C1.34 14 0.68 14 0 14 C0 9.38 0 4.76 0 0 Z " fill="#090909" transform="translate(206,211)"/>
<path d="M0 0 C0.68707031 0.34933594 1.37414062 0.69867188 2.08203125 1.05859375 C2.98308594 1.51363281 3.88414062 1.96867188 4.8125 2.4375 C6.15248047 3.11619141 6.15248047 3.11619141 7.51953125 3.80859375 C10.03999478 5.0831605 10.03999478 5.0831605 13 6 C12.67 7.65 12.34 9.3 12 11 C8.33333333 11 4.66666667 11 1 11 C1.33 12.32 1.66 13.64 2 15 C0.68 14.34 -0.64 13.68 -2 13 C-2 11.68 -2 10.36 -2 9 C0.96390838 7.51804581 3.72443978 7.94253403 7 8 C9.9254644 8.2236068 9.9254644 8.2236068 12 7 C9.36 6.67 6.72 6.34 4 6 C4 5.34 4 4.68 4 4 C3.01 4.33 2.02 4.66 1 5 C0.67 3.35 0.34 1.7 0 0 Z " fill="#D7CCBE" transform="translate(128,146)"/>
<path d="M0 0 C0.66 0 1.32 0 2 0 C2 1.98 2 3.96 2 6 C4.64 6 7.28 6 10 6 C10 4.02 10 2.04 10 0 C10.66 0 11.32 0 12 0 C12 4.62 12 9.24 12 14 C11.34 14 10.68 14 10 14 C10 11.69 10 9.38 10 7 C7.36 7 4.72 7 2 7 C2 9.31 2 11.62 2 14 C1.34 14 0.68 14 0 14 C0 9.38 0 4.76 0 0 Z " fill="#010101" transform="translate(120,211)"/>
<path d="M0 0 C3.3 0.33 6.6 0.66 10 1 C9.67 2.98 9.34 4.96 9 7 C9.99 7 10.98 7 12 7 C11.67 8.32 11.34 9.64 11 11 C10.60167969 10.55011719 10.20335937 10.10023438 9.79296875 9.63671875 C7.74806176 7.77001716 5.85837469 6.88250531 3.3125 5.8125 C2.50425781 5.46832031 1.69601563 5.12414062 0.86328125 4.76953125 C0.24839844 4.51558594 -0.36648437 4.26164063 -1 4 C-0.67 2.68 -0.34 1.36 0 0 Z " fill="#D3CBBA" transform="translate(135,140)"/>
<path d="M0 0 C1.4540625 0.0309375 1.4540625 0.0309375 2.9375 0.0625 C3.2675 0.7225 3.5975 1.3825 3.9375 2.0625 C1.9575 2.0625 -0.0225 2.0625 -2.0625 2.0625 C-2.3925 3.0525 -2.7225 4.0425 -3.0625 5.0625 C-0.7525 5.7225 1.5575 6.3825 3.9375 7.0625 C4.5625 9.4375 4.5625 9.4375 4.9375 12.0625 C2.9375 14.0625 2.9375 14.0625 -0.0625 14.25 C-3.0625 14.0625 -3.0625 14.0625 -5.0625 13.0625 C-5.0625 12.4025 -5.0625 11.7425 -5.0625 11.0625 C-2.4225 11.3925 0.2175 11.7225 2.9375 12.0625 C2.6075 11.0725 2.2775 10.0825 1.9375 9.0625 C-1.56544871 7.34682339 -1.56544871 7.34682339 -5.0625 6.0625 C-3.98897059 0.08140756 -3.98897059 0.08140756 0 0 Z " fill="#0A0A0A" transform="translate(167.0625,210.9375)"/>
<path d="M0 0 C0.969375 0.144375 1.93875 0.28875 2.9375 0.4375 C6.64134902 0.98173904 10.35123191 1.31929071 14.08203125 1.62109375 C16 2 16 2 18 4 C17.67 4.66 17.34 5.32 17 6 C13.7 5.67 10.4 5.34 7 5 C7 4.34 7 3.68 7 3 C4.03 2.505 4.03 2.505 1 2 C1 2.66 1 3.32 1 4 C0.34 4 -0.32 4 -1 4 C-0.67 2.68 -0.34 1.36 0 0 Z " fill="#D1CECD" transform="translate(155,161)"/>
<path d="M0 0 C0 5.61 0 11.22 0 17 C-0.99 17 -1.98 17 -3 17 C-3.24875561 14.73122896 -3.47339246 12.45980265 -3.6875 10.1875 C-3.81511719 8.92292969 -3.94273437 7.65835938 -4.07421875 6.35546875 C-4 3 -4 3 -2.58203125 1.05078125 C-1 0 -1 0 0 0 Z " fill="#CDCDCC" transform="translate(210,142)"/>
<path d="M0 0 C0.66 0 1.32 0 2 0 C2.99 2.97 3.98 5.94 5 9 C2.36 9 -0.28 9 -3 9 C-2.44271087 5.65626525 -1.64826111 2.96687001 0 0 Z " fill="#BABBBC" transform="translate(102,184)"/>
<path d="M0 0 C7.38461538 -0.36923077 7.38461538 -0.36923077 10.5 1.5 C10.995 1.995 11.49 2.49 12 3 C11.67 3.99 11.34 4.98 11 6 C7.26840331 7.24386556 4.81984796 6.77811718 1 6 C0.67 5.34 0.34 4.68 0 4 C0.639375 3.87625 1.27875 3.7525 1.9375 3.625 C2.9584375 3.315625 2.9584375 3.315625 4 3 C4.33 2.34 4.66 1.68 5 1 C3.35 1 1.7 1 0 1 C0 0.67 0 0.34 0 0 Z " fill="#B28D3A" transform="translate(134,135)"/>
<path d="M0 0 C0.5625 1.9375 0.5625 1.9375 1 4 C-0.96822886 5.96822886 -4.34808709 5.66248381 -7 6 C-6.34 6.33 -5.68 6.66 -5 7 C-5 7.66 -5 8.32 -5 9 C-7.875 8.75 -7.875 8.75 -11 8 C-12.375 5.9375 -12.375 5.9375 -13 4 C-11.68 3.34 -10.36 2.68 -9 2 C-8.67 2.33 -8.34 2.66 -8 3 C-5.66702567 3.04092937 -3.33294775 3.04241723 -1 3 C-0.67 2.01 -0.34 1.02 0 0 Z " fill="#B58E41" transform="translate(141,153)"/>
<path d="M0 0 C2.62386487 3.06117568 3 3.73173127 3 8 C0.69 8 -1.62 8 -4 8 C-4.33 8.99 -4.66 9.98 -5 11 C-5.66 10.67 -6.32 10.34 -7 10 C-6.34 8.35 -5.68 6.7 -5 5 C-4.01 5 -3.02 5 -2 5 C-1.34 3.35 -0.68 1.7 0 0 Z " fill="#252525" transform="translate(147,214)"/>
<path d="M0 0 C0.66 0 1.32 0 2 0 C2.99 2.97 3.98 5.94 5 9 C2.36 9 -0.28 9 -3 9 C-2.01 6.03 -1.02 3.06 0 0 Z " fill="#B2B2B2" transform="translate(240,184)"/>
<path d="M0 0 C0.33 0 0.66 0 1 0 C1 4.95 1 9.9 1 15 C-4.625 9.375 -4.625 9.375 -6 6 C-4.68 6.33 -3.36 6.66 -2 7 C-1.34 4.69 -0.68 2.38 0 0 Z " fill="#D5D0C6" transform="translate(199,136)"/>
<path d="M0 0 C0.99 0 1.98 0 3 0 C3 4.62 3 9.24 3 14 C2.34 14 1.68 14 1 14 C0.67 11.36 0.34 8.72 0 6 C-0.66 6.66 -1.32 7.32 -2 8 C-2.33 7.34 -2.66 6.68 -3 6 C-2.06553465 3.96855359 -1.06775224 1.96466413 0 0 Z " fill="#1B1B1C" transform="translate(192,211)"/>
<path d="M0 0 C0.33 0 0.66 0 1 0 C1 5.28 1 10.56 1 16 C-1.97 15.505 -1.97 15.505 -5 15 C-5.33 15.66 -5.66 16.32 -6 17 C-6.66 15.68 -7.32 14.36 -8 13 C-7.01 13 -6.02 13 -5 13 C-4.67 12.01 -4.34 11.02 -4 10 C-3.01 11.32 -2.02 12.64 -1 14 C-0.67 9.38 -0.34 4.76 0 0 Z " fill="#B59551" transform="translate(200,136)"/>
<path d="M0 0 C0.99 0 1.98 0 3 0 C3 3.96 3 7.92 3 12 C2.01 12.33 1.02 12.66 0 13 C0 8.71 0 4.42 0 0 Z " fill="#010103" transform="translate(145,179)"/>
<path d="M0 0 C0.99 1.32 1.98 2.64 3 4 C3.99 3.34 4.98 2.68 6 2 C5 10.57142857 5 10.57142857 4 14 C0.07260562 9.09075703 -0.43177893 6.26079448 0 0 Z " fill="#B78F43" transform="translate(151,145)"/>
<path d="M0 0 C1.32 0.33 2.64 0.66 4 1 C1.69 3.64 -0.62 6.28 -3 9 C-3.99 8.01 -4.98 7.02 -6 6 C-5.09972412 4.96468274 -4.17906965 3.94705835 -3.25 2.9375 C-2.48429688 2.08478516 -2.48429688 2.08478516 -1.703125 1.21484375 C-1.14109375 0.81394531 -0.5790625 0.41304687 0 0 Z " fill="#080808" transform="translate(159,179)"/>
<path d="M0 0 C5 5 5 5 6 8 C5.34 8 4.68 8 4 8 C4 7.34 4 6.68 4 6 C3.01 6.495 3.01 6.495 2 7 C1.53348793 9.12576782 1.53348793 9.12576782 1.375 11.5625 C1.30023438 12.38878906 1.22546875 13.21507812 1.1484375 14.06640625 C1.09945312 14.70449219 1.05046875 15.34257812 1 16 C0.67 16 0.34 16 0 16 C0 10.72 0 5.44 0 0 Z " fill="#D9CEBB" transform="translate(189,146)"/>
<path d="M0 0 C2.64 0 5.28 0 8 0 C8 0.99 8 1.98 8 3 C5.36 3.66 2.72 4.32 0 5 C-0.33 4.01 -0.66 3.02 -1 2 C-0.67 1.34 -0.34 0.68 0 0 Z " fill="#B58827" transform="translate(159,136)"/>
<path d="M0 0 C0.66 0 1.32 0 2 0 C2.91297308 4.97063121 2.91297308 9.02936879 2 14 C1.34 14 0.68 14 0 14 C0 9.38 0 4.76 0 0 Z " fill="#111111" transform="translate(120,211)"/>
<path d="M0 0 C2.31 0.66 4.62 1.32 7 2 C5.75 4.5 5.75 4.5 4 7 C2.68 7 1.36 7 0 7 C0 4.69 0 2.38 0 0 Z " fill="#D2D0CA" transform="translate(131,161)"/>
<path d="M0 0 C0.66 0 1.32 0 2 0 C2 0.66 2 1.32 2 2 C4.64 2.33 7.28 2.66 10 3 C9.67 3.66 9.34 4.32 9 5 C5.06329512 6.31223496 2.87511856 5.24296256 -1 4 C-0.67 2.68 -0.34 1.36 0 0 Z " fill="#D1D1D2" transform="translate(130,150)"/>
<path d="M0 0 C4 4.75 4 4.75 4 7 C3.34 7 2.68 7 2 7 C2 7.66 2 8.32 2 9 C1.34 9 0.68 9 0 9 C-0.66 7.35 -1.32 5.7 -2 4 C-1.34 3.67 -0.68 3.34 0 3 C0 2.01 0 1.02 0 0 Z " fill="#B28729" transform="translate(156,150)"/>
<path d="M0 0 C2.97 0.495 2.97 0.495 6 1 C5.34 2.65 4.68 4.3 4 6 C2.68 5.67 1.36 5.34 0 5 C0 3.35 0 1.7 0 0 Z " fill="#CDCECF" transform="translate(193,137)"/>
<path d="M0 0 C0.33 0.99 0.66 1.98 1 3 C3.00016466 4.20882096 3.00016466 4.20882096 5 5 C3.68 5 2.36 5 1 5 C0.67 6.32 0.34 7.64 0 9 C-0.99 8.01 -1.98 7.02 -3 6 C-2.34 6 -1.68 6 -1 6 C-0.67 4.02 -0.34 2.04 0 0 Z " fill="#B38D39" transform="translate(133,141)"/>
<path d="M0 0 C3 3.75 3 3.75 3 6 C1.02 6 -0.96 6 -3 6 C-2.01 4.02 -1.02 2.04 0 0 Z " fill="#ADADAD" transform="translate(147,214)"/>
<path d="M0 0 C1.2065625 0.0309375 1.2065625 0.0309375 2.4375 0.0625 C2.1075 1.0525 1.7775 2.0425 1.4375 3.0625 C0.1175 3.0625 -1.2025 3.0625 -2.5625 3.0625 C-2.5625 3.7225 -2.5625 4.3825 -2.5625 5.0625 C-3.2225 5.0625 -3.8825 5.0625 -4.5625 5.0625 C-3.43829114 0.08386076 -3.43829114 0.08386076 0 0 Z " fill="#B98924" transform="translate(136.5625,135.9375)"/>
<path d="M0 0 C2.97 0 5.94 0 9 0 C9 0.66 9 1.32 9 2 C6.1875 2.6875 6.1875 2.6875 3 3 C2.01 2.01 1.02 1.02 0 0 Z " fill="#B48522" transform="translate(133,158)"/>
<path d="M0 0 C1.32 0 2.64 0 4 0 C4.33 2.31 4.66 4.62 5 7 C3.29115995 5.37660195 1.62553283 3.70680947 0 2 C0 1.34 0 0.68 0 0 Z " fill="#D4C8B7" transform="translate(195,144)"/>
<path d="M0 0 C-0.66 1.32 -1.32 2.64 -2 4 C-5.3 3.67 -8.6 3.34 -12 3 C-12 2.67 -12 2.34 -12 2 C-10.37548581 1.66430703 -8.75037083 1.3315204 -7.125 1 C-6.22007812 0.814375 -5.31515625 0.62875 -4.3828125 0.4375 C-2 0 -2 0 0 0 Z " fill="#D0C2A8" transform="translate(174,160)"/>
<path d="M0 0 C0.33 0.99 0.66 1.98 1 3 C-2.63 2.34 -6.26 1.68 -10 1 C-10 0.67 -10 0.34 -10 0 C-3.15175097 -1.40077821 -3.15175097 -1.40077821 0 0 Z " fill="#D6CCBE" transform="translate(172,134)"/>
</svg>
